PathFileType	4	(X/Y/Z)	./resultDataOpenSim/trcMotMarkerGrf/sub09/qtm-04-06.trc
DataRate	CameraRate	NumFrames	NumMarkers	Units	OrigDataRate	OrigDataStartFrame	OrigNumFrames
250.000000	250.000000	5	24	m	250.000000	64	506
Frame#	Time	L.Toe.Tip			R.Toe.Tip			L.Ankle.Lat			R.Ankle.Lat			L.Ankle.Med			R.Ankle.Med			L.Heel			R.Heel			L.Knee.Lat			R.Knee.Lat			L.Knee.Med			R.Knee.Med			L.Thigh.Upper			R.Thigh.Upper			L.ASIS			R.ASIS			V.Sacral			L.Acromium			R.Acromium			C7			L.Elbow			R.Elbow			L.Wrist.Lat			R.Wrist.Lat
		X1	Y1	Z1	X2	Y2	Z2	X3	Y3	Z3	X4	Y4	Z4	X5	Y5	Z5	X6	Y6	Z6	X7	Y7	Z7	X8	Y8	Z8	X9	Y9	Z9	X10	Y10	Z10	X11	Y11	Z11	X12	Y12	Z12	X13	Y13	Z13	X14	Y14	Z14	X15	Y15	Z15	X16	Y16	Z16	X17	Y17	Z17	X18	Y18	Z18	X19	Y19	Z19	X20	Y20	Z20	X21	Y21	Z21	X22	Y22	Z22	X23	Y23	Z23	X24	Y24	Z24

64	0.252	-1.3117094	0.099130911	-0.061645449	-0.59807153	0.038904707	0.080118219	-1.3381086	0.25309248	-0.098971881	-0.74616338	0.053070214	0.10798981	-1.3136575	0.23639396	-0.0060684662	-0.73544191	0.091456421	0.017258466	-1.400472	0.29804562	-0.049506824	-0.81343746	0.031322796	0.057525734	-0.95969698	0.41946838	-0.12116608	-0.70164264	0.5052028	0.17146441	-0.95059024	0.40599637	0.0052421182	-0.7178315	0.49327154	0.044631061	-0.93258018	0.82662154	-0.13853352	-0.9040365	0.85750897	0.23347003	-0.84113858	0.91164627	-0.085345934	-0.8318424	0.93964371	0.15305687	-1.0032742	0.98574869	0.038307684	-0.81931532	1.3797411	-0.12282348	-0.85047492	1.3778492	0.20486822	-0.9040292	1.4343554	0.036689623	-0.92133287	1.0186367	-0.19520123	-0.97510039	1.0295162	0.26781493	-0.69992123	0.86412709	-0.17676056	-0.84072026	0.79458873	0.3024864
65	0.256	-1.2981794	0.10156573	-0.063178746	-0.59810112	0.038893796	0.080086595	-1.3250607	0.25548474	-0.098869926	-0.74628263	0.053118145	0.10806473	-1.3002012	0.2383376	-0.0061744035	-0.73528682	0.091458243	0.017238758	-1.3877867	0.30024228	-0.049384881	-0.81350289	0.031331345	0.05745078	-0.94710223	0.4202567	-0.12020385	-0.69887561	0.50481503	0.17168236	-0.9376295	0.40662115	0.0059658148	-0.71500994	0.49307889	0.044795131	-0.92638608	0.82773592	-0.13820946	-0.8983234	0.85924471	0.23377423	-0.83561307	0.91300952	-0.085187545	-0.82596019	0.94104309	0.15312333	-0.99754616	0.98720244	0.038633675	-0.81364658	1.3810107	-0.12278839	-0.84416599	1.3791559	0.20504337	-0.89802973	1.4358165	0.037074202	-0.9158976	1.0200975	-0.19441753	-0.96790263	1.030227	0.2684166	-0.69681063	0.86272307	-0.17663244	-0.83077534	0.79645532	0.3019117
66	0.26	-1.2842625	0.1037989	-0.064537799	-0.59813889	0.038890507	0.08008336	-1.3119417	0.25756957	-0.098717459	-0.74637213	0.053148936	0.10814092	-1.286962	0.24008886	-0.0062071617	-0.735134	0.0914684	0.017248156	-1.3750046	0.30198165	-0.049205744	-0.81356187	0.031343106	0.057384929	-0.93445759	0.42124323	-0.11942416	-0.696249	0.50446739	0.17192007	-0.92474701	0.40742328	0.0066736574	-0.71231888	0.49287569	0.045006421	-0.92017292	0.82896078	-0.13784363	-0.89347314	0.86089918	0.23398091	-0.83009997	0.91446637	-0.085035341	-0.82012113	0.94246512	0.1531923	-0.99182966	0.98872814	0.03896026	-0.80804102	1.3823487	-0.1227637	-0.83785875	1.380529	0.20520354	-0.89207143	1.4374155	0.037483651	-0.91075198	1.0216675	-0.19365494	-0.96077027	1.0310271	0.26905224	-0.69379882	0.86140635	-0.17652387	-0.82078133	0.7985121	0.30133849
67	0.264	-1.270008	0.10581227	-0.065698282	-0.59818761	0.038894826	0.080113567	-1.2986806	0.25934186	-0.098577535	-0.74642918	0.053180816	0.10819222	-1.2740024	0.24154384	-0.0060762126	-0.73499244	0.091488434	0.017277702	-1.3620681	0.30332018	-0.049076115	-0.81361766	0.031357499	0.057325945	-0.92144268	0.42246669	-0.11905028	-0.69385994	0.50418742	0.1721684	-0.91184108	0.40839717	0.007384401	-0.70979872	0.4926821	0.045300763	-0.91391163	0.83028041	-0.13746887	-0.88922372	0.86247634	0.23412907	-0.82458757	0.91601584	-0.084882426	-0.8143637	0.94389493	0.1532713	-0.98613511	0.9903311	0.039270569	-0.80248601	1.3837552	-0.12274171	-0.83154932	1.3819709	0.20535136	-0.88610012	1.4391021	0.037915123	-0.90586315	1.0233362	-0.19294152	-0.9537043	1.0319034	0.26971509	-0.69094229	0.86018518	-0.17643031	-0.81070342	0.80078061	0.3008033
68	0.268	-1.2554879	0.10757514	-0.066624245	-0.59824855	0.038907203	0.080173316	-1.2852504	0.26080741	-0.098469168	-0.74647975	0.053230733	0.10821138	-1.2612456	0.24259259	-0.0057126732	-0.73488938	0.091517886	0.017311116	-1.349044	0.30431712	-0.048980565	-0.81367246	0.031371856	0.057269604	-0.90803993	0.42393155	-0.11892781	-0.6916685	0.50396847	0.17243947	-0.89887456	0.40953234	0.0081371743	-0.70749204	0.4925044	0.045754313	-0.90755705	0.8316872	-0.13713719	-0.88489367	0.8640323	0.23426497	-0.81907177	0.91765585	-0.084721984	-0.80870353	0.94532888	0.15337064	-0.98047252	0.991996	0.039556761	-0.79697585	1.3852324	-0.12272559	-0.8252534	1.3834852	0.20549495	-0.88007279	1.4407591	0.038307756	-0.90104982	1.0251065	-0.19213498	-0.94671093	1.0328476	0.27039608	-0.68824765	0.85906018	-0.17634485	-0.80064355	0.80321833	0.30028089
